HIERARCHY
ROOT Hips
{
	OFFSET	0.00	0.00	0.00
	CHANNELS 6 Xposition Yposition Zposition Zrotation Xrotation Yrotation
	JOINT LeftUpLeg
	{
		OFFSET	 0.126116	-0.014019	-0.065224
		CHANNELS 3 Zrotation Xrotation Yrotation
		JOINT LeftLeg
		{
			OFFSET	 0.000000	 0.000000	 0.569914
			CHANNELS 3 Zrotation Xrotation Yrotation
			JOINT LeftFoot
			{
				OFFSET	 0.000000	 0.000000	 0.544423
				CHANNELS 3 Zrotation Xrotation Yrotation
				JOINT LeftToeBase
				{
					OFFSET	 0.000000	 0.000000	 0.207117
					CHANNELS 3 Zrotation Xrotation Yrotation
					End Site
					{
						OFFSET	 0.000000	 0.000000	 0.207117
					}
				}
			}
		}
	}
	JOINT RightUpLeg
	{
		OFFSET	-0.124023	-0.008373	-0.065224
		CHANNELS 3 Zrotation Xrotation Yrotation
		JOINT RightLeg
		{
			OFFSET	 0.000000	 0.000000	 0.570047
			CHANNELS 3 Zrotation Xrotation Yrotation
			JOINT RightFoot
			{
				OFFSET	 0.000000	 0.000000	 0.544354
				CHANNELS 3 Zrotation Xrotation Yrotation
				JOINT RightToeBase
				{
					OFFSET	 0.000000	 0.000000	 0.207540
					CHANNELS 3 Zrotation Xrotation Yrotation
					End Site
					{
						OFFSET	 0.000000	 0.000000	 0.207540
					}
				}
			}
		}
	}
	JOINT Spine
	{
		OFFSET	 0.000184	-0.007763	 0.117403
		CHANNELS 3 Zrotation Xrotation Yrotation
		JOINT Spine1
		{
			OFFSET	 0.000000	 0.000000	 0.137269
			CHANNELS 3 Zrotation Xrotation Yrotation
			JOINT Spine2
			{
				OFFSET	 0.000000	 0.000000	 0.156879
				CHANNELS 3 Zrotation Xrotation Yrotation
				JOINT LeftShoulder
				{
					OFFSET	 0.080501	-0.002496	 0.160144
					CHANNELS 3 Zrotation Xrotation Yrotation
					JOINT LeftArm
					{
						OFFSET	 0.000000	 0.000000	 0.164363
						CHANNELS 3 Zrotation Xrotation Yrotation
						JOINT LeftForeArm
						{
							OFFSET	 0.000000	 0.000000	 0.364576
							CHANNELS 3 Zrotation Xrotation Yrotation
							JOINT LeftHand
							{
								OFFSET	 0.000000	 0.000000	 0.360812
								CHANNELS 3 Zrotation Xrotation Yrotation
								JOINT LeftHandIndex1
								{
									OFFSET	 0.000000	 0.000000	 0.086006
									CHANNELS 3 Zrotation Xrotation Yrotation
									JOINT LeftHandIndex2
									{
										OFFSET	 0.000000	 0.000000	 0.047236
										CHANNELS 3 Zrotation Xrotation Yrotation
										JOINT LeftHandIndex3
										{
											OFFSET	-0.004284	-0.000551	 0.038166
											CHANNELS 3 Zrotation Xrotation Yrotation
											End Site
											{
												OFFSET	-0.004284	-0.000551	 0.038166
											}
										}
									}
								}
							}
						}
					}
				}
				JOINT Neck
				{
					OFFSET	 0.000000	 0.000000	 0.176489
					CHANNELS 3 Zrotation Xrotation Yrotation
					JOINT Head
					{
						OFFSET	 0.000000	-0.001747	 0.077940
						CHANNELS 3 Zrotation Xrotation Yrotation
						End Site
						{
							OFFSET	 0.000000	-0.001747	 0.077940
						}
					}
				}
				JOINT RightShoulder
				{
					OFFSET	-0.080363	 0.000306	 0.159706
					CHANNELS 3 Zrotation Xrotation Yrotation
					JOINT RightArm
					{
						OFFSET	 0.000000	 0.000000	 0.164196
						CHANNELS 3 Zrotation Xrotation Yrotation
						JOINT RightForeArm
						{
							OFFSET	 0.000000	 0.000000	 0.365611
							CHANNELS 3 Zrotation Xrotation Yrotation
							JOINT RightHand
							{
								OFFSET	 0.000000	 0.000000	 0.360648
								CHANNELS 3 Zrotation Xrotation Yrotation
								JOINT RightHandIndex1
								{
									OFFSET	 0.000000	 0.000000	 0.069977
									CHANNELS 3 Zrotation Xrotation Yrotation
									JOINT RightHandIndex2
									{
										OFFSET	 0.000000	 0.000000	 0.052305
										CHANNELS 3 Zrotation Xrotation Yrotation
										JOINT RightHandIndex3
										{
											OFFSET	 0.009002	-0.000782	 0.042196
											CHANNELS 3 Zrotation Xrotation Yrotation
											End Site
											{
												OFFSET	 0.009002	-0.000782	 0.042196
											}
										}
									}
								}
							}
						}
					}
				}
			}
		}
	}
}
MOTION
Frames:    4
Frame Time: 0.03333334
 0.000556	 0.043031	 1.274326	-0.083562	 2.516173	 0.712851	 1.350866	-6.481959	 178.205600	 2.292460	-14.699680	 0.687896	-0.112798	 71.992990	-0.051782	-2.385833	 28.452750	 0.000004	 6.152761	-5.689491	-178.869400	-0.776977	-12.488110	 0.946554	 5.699685	 70.602980	 0.597143	 2.384659	 28.388700	-0.000001	 2.660425	 7.273798	-0.377554	 1.492128	-6.212723	 0.343038	-3.859875	 9.690632	 0.776816	-91.162680	 69.740060	-177.810700	-6.625346	 0.848572	-7.392405	 25.226870	-5.377908	-19.638050	-8.184767	-8.107910	-4.083667	-2.027600	 6.559038	 9.033609	-5.188889	 0.308190	 3.541030	-5.234859	 0.342567	 0.430617	 4.384072	 17.912080	-6.725677	-9.038061	-13.477020	 1.753616	 89.005360	 68.617170	 177.346600	 10.305770	 8.291989	 17.515820	-28.299470	-0.180400	 0.478792	 5.158598	-8.188649	 6.065026	 1.803333	 3.979147	-15.098590	 4.898592	 3.004813	-9.310344	 5.224449	 0.395017	 2.014677
 0.000531	 0.043320	 1.274190	-0.079860	 2.596153	 0.720816	 1.326796	-6.646469	 178.196400	 2.277148	-14.831150	 0.689986	-0.075728	 72.033490	-0.074094	-2.385833	 28.452750	 0.000004	 6.161145	-5.846951	-178.872900	-0.771866	-12.606870	 0.956534	 5.724923	 70.646520	 0.567124	 2.384659	 28.388700	-0.000001	 2.645134	 7.363655	-0.381112	 1.490163	-6.534531	 0.342491	-3.845592	 10.091660	 0.802097	-91.142300	 69.601100	-177.763900	-6.499252	 0.688941	-7.493581	 25.159610	-5.406774	-19.822410	-7.970860	-8.228378	-4.113746	-2.027600	 6.559038	 9.033609	-5.188889	 0.308190	 3.541030	-5.234859	 0.342567	 0.430617	 4.426307	 18.275240	-6.840460	-9.019963	-13.689230	 1.740986	 88.977680	 68.426120	 177.290300	 10.281760	 8.178325	 17.735850	-28.320510	-0.180728	 0.478969	 4.942379	-8.237130	 5.999691	 1.803333	 3.979147	-15.098590	 4.898592	 3.004813	-9.310344	 5.224449	 0.395017	 2.014677
 0.000360	 0.045294	 1.273252	-0.054749	 3.105702	 0.770991	 1.171355	-7.704046	 178.134500	 2.189388	-15.672200	 0.704401	 0.147611	 72.291070	-0.212599	-2.385833	 28.452750	 0.000004	 6.211868	-6.865295	-178.894100	-0.739741	-13.379930	 1.021613	 5.895408	 70.921840	 0.366847	 2.384659	 28.388700	-0.000001	 2.531979	 7.910581	-0.397462	 1.466933	-8.472252	 0.333976	-3.734051	 12.545940	 0.949795	-91.014240	 68.748950	-177.481900	-5.757058	-0.169865	-8.076413	 24.731560	-5.605604	-21.077970	-6.674357	-8.962577	-4.325373	-2.027600	 6.559038	 9.033609	-5.188889	 0.308190	 3.541030	-5.234859	 0.342567	 0.430617	 4.691926	 20.517000	-7.555602	-8.864465	-14.994910	 1.665488	 88.799760	 67.234040	 176.947700	 10.115470	 7.592687	 19.116070	-28.455090	-0.182429	 0.480288	 3.610869	-8.530631	 5.601662	 1.803333	 3.979147	-15.098590	 4.898592	 3.004813	-9.310344	 5.224449	 0.395017	 2.014677
 0.000023	 0.047806	 1.272071	-0.000977	 3.746217	 0.834436	 0.885069	-9.000389	 178.031100	 2.124051	-16.656740	 0.752631	 0.238101	 72.681270	-0.313912	-2.385833	 28.452750	 0.000004	 6.224228	-8.106521	-178.925300	-0.720527	-14.271270	 1.093047	 6.039463	 71.216350	 0.214618	 2.384659	 28.388700	-0.000001	 2.488231	 8.341562	-0.397755	 1.456614	-10.297870	 0.305285	-3.712717	 14.607080	 1.096883	-90.932440	 68.173810	-177.321400	-5.182067	-0.437539	-8.344265	 24.223440	-5.799251	-22.493520	-5.724515	-9.937661	-4.694452	-2.027600	 6.559038	 9.033609	-5.188889	 0.308190	 3.541030	-5.234859	 0.342567	 0.430617	 4.713712	 22.274780	-8.063365	-8.581389	-16.128290	 1.608544	 88.642780	 66.122340	 176.684500	 9.920735	 6.978511	 17.826880	-28.287750	-1.919455	 5.082482	 2.422925	-8.991241	 5.333106	 1.803333	 3.979147	-15.098590	 4.898592	 3.004813	-9.310344	 5.224449	 0.395017	 2.014677
